<svg id="Layer_1" data-name="Layer 1" xmlns="http://www.w3.org/2000/svg" xmlns:xlink="http://www.w3.org/1999/xlink" viewBox="0 0 2000 2000"><defs><style>.cls-1{fill:url(#linear-gradient);}.cls-2{fill:url(#linear-gradient-2);}.cls-3{fill:url(#linear-gradient-3);}.cls-4{fill:url(#linear-gradient-4);}.cls-5{fill:url(#linear-gradient-5);}</style><linearGradient id="linear-gradient" x1="639.38" y1="750.25" x2="1138.89" y2="1249.75" gradientUnits="userSpaceOnUse"><stop offset="0" stop-color="#4570b5"/><stop offset="0.56" stop-color="#ae1d29"/><stop offset="1" stop-color="#4570b5"/></linearGradient><linearGradient id="linear-gradient-2" x1="296.96" y1="1258.25" x2="742.08" y2="813.13" gradientUnits="userSpaceOnUse"><stop offset="0" stop-color="#4570b5"/><stop offset="0.47" stop-color="#111119"/><stop offset="1" stop-color="#ae1d29"/></linearGradient><linearGradient id="linear-gradient-3" x1="266.69" y1="17684.18" x2="766.19" y2="18183.68" gradientTransform="translate(1627.3 18933.93) rotate(180)" xlink:href="#linear-gradient"/><linearGradient id="linear-gradient-4" x1="-75.74" y1="18192.18" x2="369.39" y2="17747.05" gradientTransform="translate(1627.3 18933.93) rotate(180)" xlink:href="#linear-gradient-2"/><linearGradient id="linear-gradient-5" x1="516.34" y1="131.25" x2="1483.66" y2="1868.75" gradientUnits="userSpaceOnUse"><stop offset="0" stop-color="#ae1d29"/><stop offset="0.53" stop-color="#335da5"/><stop offset="1" stop-color="#4570b5"/></linearGradient></defs><path class="cls-1" d="M1120,1268.63c-23.86,18.69-50.69,29.52-81.8,29.52-166.27,0-212.78-309.48-312-482.5l-.1-.11c-1.29-2.28-2.59-4.47-3.88-6.65-18.88-31.81-39.75-58.64-63.7-77.42l-.2-.2c23.75-18.59,50.68-29.42,81.69-29.42C939.82,701.85,966.66,1148.58,1120,1268.63Z"/><path class="cls-2" d="M726.25,815.65c-124,97.19-185.35,482.5-347,482.5-25.15,0-46.81-8.74-66.19-23.85,106.34-83.19,215-441.56,345.56-542.83,23.95,18.78,44.82,45.61,63.7,77.42a11.72,11.72,0,0,0,3.88,6.65Z"/><path class="cls-3" d="M880,731.37c23.86-18.69,50.69-29.52,81.8-29.52,166.27,0,212.78,309.48,312,482.5l.1.11c1.29,2.28,2.59,4.47,3.88,6.65,18.88,31.81,39.75,58.64,63.7,77.42a1.89,1.89,0,0,0,.2.2c-23.75,18.59-50.68,29.42-81.69,29.42C1060.18,1298.15,1033.34,851.42,880,731.37Z"/><path class="cls-4" d="M1273.75,1184.35c124-97.19,185.35-482.5,347-482.5,25.15,0,46.81,8.74,66.19,23.85-106.34,83.19-215,441.56-345.56,542.83-24-18.78-44.82-45.61-63.7-77.42a11.72,11.72,0,0,0-3.88-6.65Z"/><path class="cls-5" d="M1000,1994.48C451.64,1994.48,5.52,1548.36,5.52,1000S451.64,5.52,1000,5.52,1994.48,451.64,1994.48,1000,1548.36,1994.48,1000,1994.48Zm0-1867.2c-481.22,0-872.72,391.5-872.72,872.72s391.5,872.72,872.72,872.72,872.72-391.5,872.72-872.72S1481.22,127.28,1000,127.28Z"/></svg>