<svg xmlns="http://www.w3.org/2000/svg" xmlns:xlink="http://www.w3.org/1999/xlink" width="170" zoomAndPan="magnify" viewBox="0 0 127.5 52.499999" height="70" preserveAspectRatio="xMidYMid meet" version="1.0"><defs><g/><clipPath id="e4388baad3"><path d="M 47 25 L 53 25 L 53 41.34375 L 47 41.34375 Z M 47 25 " clip-rule="nonzero"/></clipPath><clipPath id="5e3bcf2f31"><path d="M 47 22.027344 L 51 22.027344 L 51 27 L 47 27 Z M 47 22.027344 " clip-rule="nonzero"/></clipPath><clipPath id="50a3ac5584"><path d="M 45.222656 32 L 49 32 L 49 36 L 45.222656 36 Z M 45.222656 32 " clip-rule="nonzero"/></clipPath><clipPath id="00140168d3"><path d="M 45.222656 28 L 48 28 L 48 33 L 45.222656 33 Z M 45.222656 28 " clip-rule="nonzero"/></clipPath><clipPath id="fd9d3551a6"><path d="M 45.222656 24 L 48 24 L 48 30 L 45.222656 30 Z M 45.222656 24 " clip-rule="nonzero"/></clipPath><clipPath id="a53abd7f0d"><path d="M 0.355469 29 L 7 29 L 7 36 L 0.355469 36 Z M 0.355469 29 " clip-rule="nonzero"/></clipPath><clipPath id="8b17efc51d"><path d="M 79 25 L 85 25 L 85 41.34375 L 79 41.34375 Z M 79 25 " clip-rule="nonzero"/></clipPath><clipPath id="6c54c276a3"><path d="M 81 22.027344 L 85 22.027344 L 85 27 L 81 27 Z M 81 22.027344 " clip-rule="nonzero"/></clipPath><clipPath id="737bd67e0d"><path d="M 83 32 L 86.53125 32 L 86.53125 36 L 83 36 Z M 83 32 " clip-rule="nonzero"/></clipPath><clipPath id="a712491fb1"><path d="M 84 28 L 86.53125 28 L 86.53125 33 L 84 33 Z M 84 28 " clip-rule="nonzero"/></clipPath><clipPath id="79f462a1fb"><path d="M 84 24 L 86.53125 24 L 86.53125 30 L 84 30 Z M 84 24 " clip-rule="nonzero"/></clipPath></defs><g clip-path="url(#e4388baad3)"><path fill="#e5bc0c" d="M 52.851562 41.453125 L 52.730469 41.582031 C 50.589844 39.542969 48.824219 37.054688 47.875 34.234375 C 47.398438 32.832031 47.144531 31.347656 47.15625 29.863281 C 47.171875 28.378906 47.441406 26.894531 47.972656 25.503906 L 48.136719 25.570312 C 47.617188 26.9375 47.351562 28.398438 47.332031 29.863281 C 47.324219 31.328125 47.574219 32.792969 48.042969 34.179688 C 48.980469 36.964844 50.726562 39.433594 52.851562 41.453125 Z M 52.851562 41.453125 " fill-opacity="1" fill-rule="nonzero"/></g><g clip-path="url(#5e3bcf2f31)"><path fill="#e5bc0c" d="M 50.027344 22.03125 C 49.945312 22.4375 49.875 22.945312 49.765625 23.40625 C 49.710938 23.640625 49.648438 23.867188 49.554688 24.0625 C 49.46875 24.265625 49.355469 24.4375 49.199219 24.574219 C 48.742188 24.996094 48.160156 25.546875 47.914062 26.210938 C 47.882812 26.183594 47.773438 26.195312 47.75 26.160156 C 47.996094 25.445312 47.8125 24.414062 48.070312 23.734375 C 48.371094 22.90625 49.230469 22.195312 50.027344 22.03125 Z M 50.027344 22.03125 " fill-opacity="1" fill-rule="nonzero"/></g><path fill="#e5bc0c" d="M 50.390625 34.707031 C 50.558594 35.324219 50.960938 36.222656 50.667969 36.90625 C 50.445312 37.421875 50.191406 38.015625 50.1875 38.644531 C 50.148438 38.542969 49.984375 38.347656 49.957031 38.320312 C 49.960938 37.652344 49.496094 37.246094 49.457031 36.660156 C 49.417969 35.933594 49.828125 35.144531 50.390625 34.707031 Z M 50.390625 34.707031 " fill-opacity="1" fill-rule="nonzero"/><path fill="#e5bc0c" d="M 46.59375 36.398438 C 46.996094 37.117188 47.691406 38.179688 48.476562 38.265625 C 49.066406 38.335938 49.722656 38.359375 50.3125 38.554688 C 50.230469 38.488281 50.105469 38.265625 50.089844 38.230469 C 49.453125 37.988281 49.300781 37.367188 48.808594 37.019531 C 48.210938 36.582031 47.320312 36.332031 46.59375 36.398438 Z M 46.59375 36.398438 " fill-opacity="1" fill-rule="nonzero"/><path fill="#e5bc0c" d="M 49.515625 31.945312 C 49.53125 32.566406 49.722656 33.503906 49.300781 34.105469 C 48.96875 34.558594 48.605469 35.089844 48.476562 35.707031 C 48.453125 35.605469 48.339844 35.375 48.316406 35.347656 C 48.449219 34.691406 48.082031 34.199219 48.167969 33.621094 C 48.285156 32.902344 48.867188 32.234375 49.515625 31.945312 Z M 49.515625 31.945312 " fill-opacity="1" fill-rule="nonzero"/><g clip-path="url(#50a3ac5584)"><path fill="#e5bc0c" d="M 45.429688 32.714844 C 45.660156 33.527344 46.117188 34.738281 46.875 34.988281 C 47.433594 35.183594 48.078125 35.335938 48.617188 35.644531 C 48.546875 35.566406 48.472656 35.320312 48.464844 35.285156 C 47.882812 34.921875 47.863281 34.277344 47.457031 33.832031 C 46.964844 33.277344 46.15625 32.820312 45.429688 32.714844 Z M 45.429688 32.714844 " fill-opacity="1" fill-rule="nonzero"/></g><path fill="#e5bc0c" d="M 49.367188 29.125 C 49.214844 29.722656 49.160156 30.652344 48.601562 31.125 C 48.171875 31.476562 47.6875 31.902344 47.425781 32.476562 C 47.425781 32.371094 47.367188 32.121094 47.351562 32.085938 C 47.632812 31.484375 47.398438 30.917969 47.628906 30.378906 C 47.925781 29.71875 48.65625 29.226562 49.367188 29.125 Z M 49.367188 29.125 " fill-opacity="1" fill-rule="nonzero"/><g clip-path="url(#00140168d3)"><path fill="#e5bc0c" d="M 45.222656 28.789062 C 45.222656 29.636719 45.363281 30.953125 46.035156 31.386719 C 46.53125 31.71875 47.117188 32.023438 47.574219 32.449219 C 47.523438 32.351562 47.507812 32.097656 47.507812 32.058594 C 47.027344 31.574219 47.167969 30.941406 46.886719 30.40625 C 46.554688 29.742188 45.886719 29.085938 45.222656 28.789062 Z M 45.222656 28.789062 " fill-opacity="1" fill-rule="nonzero"/></g><path fill="#e5bc0c" d="M 49.972656 26.371094 C 49.667969 26.910156 49.367188 27.789062 48.699219 28.09375 C 48.195312 28.320312 47.609375 28.601562 47.207031 29.085938 C 47.242188 28.984375 47.242188 28.726562 47.238281 28.6875 C 47.675781 28.183594 47.585938 27.574219 47.964844 27.117188 C 48.417969 26.558594 49.269531 26.285156 49.972656 26.371094 Z M 49.972656 26.371094 " fill-opacity="1" fill-rule="nonzero"/><g clip-path="url(#fd9d3551a6)"><path fill="#e5bc0c" d="M 46.070312 24.941406 C 45.84375 25.757812 45.625 27.066406 46.152344 27.664062 C 46.550781 28.117188 47.03125 28.566406 47.359375 29.097656 C 47.34375 28.992188 47.386719 28.738281 47.398438 28.707031 C 47.070312 28.109375 47.359375 27.535156 47.242188 26.945312 C 47.089844 26.214844 46.636719 25.40625 46.070312 24.941406 Z M 46.070312 24.941406 " fill-opacity="1" fill-rule="nonzero"/></g><g clip-path="url(#a53abd7f0d)"><g fill="#000000" fill-opacity="1"><g transform="translate(4.32302, 35.654148)"><g><path d="M -1.78125 -6.21875 L -0.96875 -5.609375 L -2.265625 -3.921875 L -1.40625 -3.25 L -0.421875 -4.515625 L 0.359375 -3.90625 L -0.625 -2.640625 L 1.046875 -1.359375 L 0.28125 -0.359375 L -3.84375 -3.53125 Z M -1.78125 -6.21875 "/></g></g></g></g><g fill="#000000" fill-opacity="1"><g transform="translate(6.750751, 32.518171)"><g><path d="M -1.5 -3.546875 C -1.570312 -3.804688 -1.585938 -4.0625 -1.546875 -4.3125 C -1.503906 -4.5625 -1.394531 -4.789062 -1.21875 -5 L -0.21875 -4.140625 L -0.4375 -3.875 C -0.644531 -3.632812 -0.742188 -3.410156 -0.734375 -3.203125 C -0.734375 -2.992188 -0.609375 -2.78125 -0.359375 -2.5625 L 1.109375 -1.3125 L 0.296875 -0.34375 L -2.84375 -3.015625 L -2.03125 -3.984375 Z M -1.5 -3.546875 "/></g></g></g><g fill="#000000" fill-opacity="1"><g transform="translate(8.73289, 30.163211)"><g><path d="M 1.4375 -4.640625 C 1.53125 -4.554688 1.613281 -4.460938 1.6875 -4.359375 L -0.265625 -2.28125 C -0.0664062 -2.113281 0.128906 -2.035156 0.328125 -2.046875 C 0.523438 -2.066406 0.695312 -2.15625 0.84375 -2.3125 C 1.0625 -2.53125 1.113281 -2.773438 1 -3.046875 L 1.9375 -4.03125 C 2.082031 -3.800781 2.171875 -3.546875 2.203125 -3.265625 C 2.234375 -2.984375 2.203125 -2.695312 2.109375 -2.40625 C 2.015625 -2.125 1.851562 -1.863281 1.625 -1.625 C 1.34375 -1.320312 1.03125 -1.113281 0.6875 -1 C 0.34375 -0.894531 -0.00390625 -0.890625 -0.359375 -0.984375 C -0.710938 -1.078125 -1.046875 -1.269531 -1.359375 -1.5625 C -1.671875 -1.851562 -1.882812 -2.171875 -2 -2.515625 C -2.113281 -2.867188 -2.125 -3.21875 -2.03125 -3.5625 C -1.9375 -3.914062 -1.75 -4.242188 -1.46875 -4.546875 C -1.195312 -4.828125 -0.890625 -5.023438 -0.546875 -5.140625 C -0.210938 -5.253906 0.125 -5.269531 0.46875 -5.1875 C 0.820312 -5.101562 1.144531 -4.921875 1.4375 -4.640625 Z M 0.3125 -3.921875 C 0.15625 -4.066406 -0.0195312 -4.125 -0.21875 -4.09375 C -0.414062 -4.070312 -0.59375 -3.984375 -0.75 -3.828125 C -0.882812 -3.679688 -0.957031 -3.515625 -0.96875 -3.328125 C -0.988281 -3.140625 -0.925781 -2.953125 -0.78125 -2.765625 Z M 0.3125 -3.921875 "/></g></g></g><g fill="#000000" fill-opacity="1"><g transform="translate(11.781602, 26.920786)"><g><path d="M -0.65625 -5.078125 C -0.300781 -5.398438 0.0820312 -5.546875 0.5 -5.515625 C 0.925781 -5.492188 1.320312 -5.28125 1.6875 -4.875 L 3.34375 -3.109375 L 2.421875 -2.25 L 0.890625 -3.890625 C 0.703125 -4.085938 0.503906 -4.191406 0.296875 -4.203125 C 0.0859375 -4.222656 -0.101562 -4.15625 -0.28125 -4 C -0.457031 -3.832031 -0.546875 -3.640625 -0.546875 -3.421875 C -0.546875 -3.210938 -0.453125 -3.007812 -0.265625 -2.8125 L 1.265625 -1.171875 L 0.328125 -0.3125 L -2.484375 -3.328125 L -1.546875 -4.1875 L -1.171875 -3.796875 C -1.203125 -4.023438 -1.175781 -4.25 -1.09375 -4.46875 C -1.007812 -4.6875 -0.863281 -4.890625 -0.65625 -5.078125 Z M -0.65625 -5.078125 "/></g></g></g><g fill="#000000" fill-opacity="1"><g transform="translate(15.356959, 23.600296)"><g><path d="M -1.15625 -1.71875 C -1.425781 -2.050781 -1.59375 -2.398438 -1.65625 -2.765625 C -1.726562 -3.128906 -1.695312 -3.472656 -1.5625 -3.796875 C -1.425781 -4.128906 -1.203125 -4.421875 -0.890625 -4.671875 C -0.484375 -5.003906 -0.0625 -5.175781 0.375 -5.1875 C 0.820312 -5.207031 1.238281 -5.0625 1.625 -4.75 L 0.59375 -3.890625 C 0.300781 -4.054688 0.03125 -4.039062 -0.21875 -3.84375 C -0.40625 -3.6875 -0.492188 -3.492188 -0.484375 -3.265625 C -0.472656 -3.046875 -0.363281 -2.804688 -0.15625 -2.546875 C 0.0625 -2.285156 0.28125 -2.125 0.5 -2.0625 C 0.71875 -2.007812 0.921875 -2.0625 1.109375 -2.21875 C 1.359375 -2.414062 1.425781 -2.675781 1.3125 -3 L 2.34375 -3.859375 C 2.582031 -3.421875 2.648438 -2.984375 2.546875 -2.546875 C 2.453125 -2.109375 2.207031 -1.722656 1.8125 -1.390625 C 1.5 -1.140625 1.164062 -0.976562 0.8125 -0.90625 C 0.457031 -0.84375 0.109375 -0.878906 -0.234375 -1.015625 C -0.578125 -1.148438 -0.882812 -1.382812 -1.15625 -1.71875 Z M -1.15625 -1.71875 "/></g></g></g><g fill="#000000" fill-opacity="1"><g transform="translate(18.730745, 20.823875)"><g><path d="M 0 -5.140625 C 0.382812 -5.410156 0.78125 -5.5 1.1875 -5.40625 C 1.601562 -5.320312 1.972656 -5.0625 2.296875 -4.625 L 3.703125 -2.65625 L 2.6875 -1.9375 L 1.375 -3.765625 C 1.21875 -3.984375 1.03125 -4.109375 0.8125 -4.140625 C 0.601562 -4.179688 0.40625 -4.132812 0.21875 -4 C 0.0195312 -3.851562 -0.0859375 -3.675781 -0.109375 -3.46875 C -0.140625 -3.257812 -0.078125 -3.046875 0.078125 -2.828125 L 1.390625 -1 L 0.375 -0.265625 L -2.828125 -4.71875 L -1.8125 -5.453125 L -0.703125 -3.90625 C -0.679688 -4.132812 -0.613281 -4.351562 -0.5 -4.5625 C -0.394531 -4.78125 -0.226562 -4.972656 0 -5.140625 Z M 0 -5.140625 "/></g></g></g><g fill="#000000" fill-opacity="1"><g transform="translate(22.741849, 17.98901)"><g/></g></g><g fill="#000000" fill-opacity="1"><g transform="translate(23.98246, 17.143647)"><g><path d="M 0.9375 -6.625 L 1.46875 -5.75 L 0.28125 -5.046875 L 2.421875 -1.453125 L 1.34375 -0.796875 L -0.796875 -4.390625 L -2 -3.6875 L -2.53125 -4.5625 Z M 0.9375 -6.625 "/></g></g></g><g fill="#000000" fill-opacity="1"><g transform="translate(27.646557, 14.949315)"><g><path d="M 2.890625 -3.921875 C 2.941406 -3.804688 2.988281 -3.6875 3.03125 -3.5625 L 0.484375 -2.234375 C 0.617188 -2.015625 0.78125 -1.878906 0.96875 -1.828125 C 1.164062 -1.773438 1.359375 -1.796875 1.546875 -1.890625 C 1.816406 -2.035156 1.945312 -2.257812 1.9375 -2.5625 L 3.140625 -3.1875 C 3.203125 -2.914062 3.203125 -2.640625 3.140625 -2.359375 C 3.085938 -2.078125 2.96875 -1.816406 2.78125 -1.578125 C 2.601562 -1.335938 2.363281 -1.144531 2.0625 -1 C 1.707031 -0.8125 1.347656 -0.722656 0.984375 -0.734375 C 0.628906 -0.742188 0.300781 -0.847656 0 -1.046875 C -0.3125 -1.253906 -0.566406 -1.546875 -0.765625 -1.921875 C -0.960938 -2.304688 -1.054688 -2.679688 -1.046875 -3.046875 C -1.035156 -3.421875 -0.925781 -3.753906 -0.71875 -4.046875 C -0.519531 -4.347656 -0.242188 -4.59375 0.109375 -4.78125 C 0.460938 -4.957031 0.8125 -5.039062 1.15625 -5.03125 C 1.507812 -5.03125 1.835938 -4.929688 2.140625 -4.734375 C 2.453125 -4.546875 2.703125 -4.273438 2.890625 -3.921875 Z M 1.578125 -3.59375 C 1.484375 -3.789062 1.335938 -3.910156 1.140625 -3.953125 C 0.941406 -3.992188 0.75 -3.960938 0.5625 -3.859375 C 0.375 -3.765625 0.242188 -3.628906 0.171875 -3.453125 C 0.0976562 -3.285156 0.09375 -3.085938 0.15625 -2.859375 Z M 1.578125 -3.59375 "/></g></g></g><g fill="#000000" fill-opacity="1"><g transform="translate(31.59967, 12.894019)"><g><path d="M -0.65625 -1.96875 C -0.820312 -2.351562 -0.890625 -2.726562 -0.859375 -3.09375 C -0.828125 -3.46875 -0.703125 -3.796875 -0.484375 -4.078125 C -0.273438 -4.359375 0.0078125 -4.582031 0.375 -4.75 C 0.851562 -4.96875 1.304688 -5.019531 1.734375 -4.90625 C 2.160156 -4.800781 2.519531 -4.546875 2.8125 -4.140625 L 1.59375 -3.59375 C 1.363281 -3.832031 1.101562 -3.890625 0.8125 -3.765625 C 0.582031 -3.671875 0.441406 -3.507812 0.390625 -3.28125 C 0.347656 -3.0625 0.394531 -2.800781 0.53125 -2.5 C 0.664062 -2.1875 0.832031 -1.972656 1.03125 -1.859375 C 1.226562 -1.753906 1.441406 -1.75 1.671875 -1.84375 C 1.960938 -1.96875 2.09375 -2.207031 2.0625 -2.5625 L 3.28125 -3.109375 C 3.382812 -2.617188 3.332031 -2.171875 3.125 -1.765625 C 2.914062 -1.367188 2.578125 -1.066406 2.109375 -0.859375 C 1.742188 -0.691406 1.378906 -0.625 1.015625 -0.65625 C 0.660156 -0.695312 0.335938 -0.828125 0.046875 -1.046875 C -0.242188 -1.265625 -0.476562 -1.570312 -0.65625 -1.96875 Z M -0.65625 -1.96875 "/></g></g></g><g fill="#000000" fill-opacity="1"><g transform="translate(35.587828, 11.109194)"><g><path d="M 1.359375 -4.953125 C 1.796875 -5.109375 2.203125 -5.085938 2.578125 -4.890625 C 2.960938 -4.703125 3.25 -4.351562 3.4375 -3.84375 L 4.28125 -1.578125 L 3.109375 -1.15625 L 2.328125 -3.265625 C 2.234375 -3.515625 2.09375 -3.6875 1.90625 -3.78125 C 1.71875 -3.882812 1.507812 -3.894531 1.28125 -3.8125 C 1.050781 -3.726562 0.894531 -3.582031 0.8125 -3.375 C 0.726562 -3.175781 0.734375 -2.953125 0.828125 -2.703125 L 1.609375 -0.59375 L 0.421875 -0.15625 L -1.484375 -5.296875 L -0.296875 -5.734375 L 0.359375 -3.953125 C 0.429688 -4.171875 0.550781 -4.363281 0.71875 -4.53125 C 0.882812 -4.707031 1.097656 -4.847656 1.359375 -4.953125 Z M 1.359375 -4.953125 "/></g></g></g><g fill="#000000" fill-opacity="1"><g transform="translate(40.206018, 9.436876)"><g/></g></g><g fill="#000000" fill-opacity="1"><g transform="translate(41.63168, 8.954358)"><g><path d="M 0.53125 -4.5 L 0.8125 -3.5 L 2.453125 -3.953125 L 2.71875 -3 L 1.078125 -2.546875 L 1.375 -1.453125 L 3.21875 -1.96875 L 3.5 -0.984375 L 0.4375 -0.125 L -0.96875 -5.140625 L 2.09375 -6 L 2.375 -5.015625 Z M 0.53125 -4.5 "/></g></g></g><g fill="#000000" fill-opacity="1"><g transform="translate(45.383105, 7.883722)"><g><path d="M 2.046875 -4.703125 C 2.515625 -4.804688 2.914062 -4.734375 3.25 -4.484375 C 3.59375 -4.242188 3.820312 -3.859375 3.9375 -3.328125 L 4.453125 -0.96875 L 3.234375 -0.703125 L 2.765625 -2.90625 C 2.703125 -3.164062 2.582031 -3.351562 2.40625 -3.46875 C 2.238281 -3.59375 2.035156 -3.628906 1.796875 -3.578125 C 1.566406 -3.523438 1.394531 -3.40625 1.28125 -3.21875 C 1.175781 -3.039062 1.15625 -2.820312 1.21875 -2.5625 L 1.6875 -0.359375 L 0.4375 -0.09375 L -0.4375 -4.125 L 0.8125 -4.390625 L 0.9375 -3.859375 C 1.019531 -4.066406 1.15625 -4.242188 1.34375 -4.390625 C 1.53125 -4.546875 1.765625 -4.648438 2.046875 -4.703125 Z M 2.046875 -4.703125 "/></g></g></g><g fill="#000000" fill-opacity="1"><g transform="translate(50.172878, 6.872017)"><g><path d="M 2.5625 -1.5 L 2.734375 -0.4375 L 2.09375 -0.34375 C 1.632812 -0.257812 1.257812 -0.304688 0.96875 -0.484375 C 0.675781 -0.671875 0.488281 -1.019531 0.40625 -1.53125 L 0.15625 -3.140625 L -0.328125 -3.0625 L -0.5 -4.109375 L -0.015625 -4.1875 L -0.171875 -5.1875 L 1.078125 -5.390625 L 1.234375 -4.390625 L 2.0625 -4.515625 L 2.234375 -3.46875 L 1.40625 -3.34375 L 1.671875 -1.71875 C 1.679688 -1.59375 1.722656 -1.503906 1.796875 -1.453125 C 1.867188 -1.410156 1.972656 -1.398438 2.109375 -1.421875 Z M 2.5625 -1.5 "/></g></g></g><g fill="#000000" fill-opacity="1"><g transform="translate(53.068594, 6.403183)"><g><path d="M 1.296875 -3.609375 C 1.421875 -3.859375 1.585938 -4.0625 1.796875 -4.21875 C 2.003906 -4.375 2.242188 -4.46875 2.515625 -4.5 L 2.671875 -3.1875 L 2.328125 -3.140625 C 2.015625 -3.109375 1.785156 -3.007812 1.640625 -2.84375 C 1.492188 -2.6875 1.441406 -2.441406 1.484375 -2.109375 L 1.703125 -0.203125 L 0.453125 -0.046875 L -0.03125 -4.140625 L 1.21875 -4.296875 Z M 1.296875 -3.609375 "/></g></g></g><g fill="#000000" fill-opacity="1"><g transform="translate(56.123847, 6.020473)"><g><path d="M 4.203125 -2.421875 C 4.210938 -2.296875 4.210938 -2.171875 4.203125 -2.046875 L 1.359375 -1.859375 C 1.390625 -1.597656 1.484375 -1.40625 1.640625 -1.28125 C 1.796875 -1.15625 1.976562 -1.101562 2.1875 -1.125 C 2.5 -1.144531 2.707031 -1.289062 2.8125 -1.5625 L 4.15625 -1.65625 C 4.101562 -1.382812 3.992188 -1.128906 3.828125 -0.890625 C 3.660156 -0.660156 3.445312 -0.472656 3.1875 -0.328125 C 2.925781 -0.191406 2.628906 -0.113281 2.296875 -0.09375 C 1.890625 -0.0625 1.519531 -0.117188 1.1875 -0.265625 C 0.863281 -0.421875 0.601562 -0.65625 0.40625 -0.96875 C 0.207031 -1.28125 0.09375 -1.648438 0.0625 -2.078125 C 0.0390625 -2.503906 0.101562 -2.878906 0.25 -3.203125 C 0.40625 -3.535156 0.632812 -3.796875 0.9375 -3.984375 C 1.25 -4.179688 1.609375 -4.296875 2.015625 -4.328125 C 2.410156 -4.347656 2.765625 -4.285156 3.078125 -4.140625 C 3.398438 -3.992188 3.660156 -3.769531 3.859375 -3.46875 C 4.054688 -3.175781 4.171875 -2.828125 4.203125 -2.421875 Z M 2.90625 -2.671875 C 2.882812 -2.890625 2.796875 -3.054688 2.640625 -3.171875 C 2.484375 -3.285156 2.296875 -3.335938 2.078125 -3.328125 C 1.867188 -3.304688 1.691406 -3.226562 1.546875 -3.09375 C 1.410156 -2.96875 1.332031 -2.789062 1.3125 -2.5625 Z M 2.90625 -2.671875 "/></g></g></g><g fill="#000000" fill-opacity="1"><g transform="translate(60.562736, 5.714658)"><g><path d="M 1.71875 -3.546875 C 1.84375 -3.742188 2.007812 -3.898438 2.21875 -4.015625 C 2.4375 -4.128906 2.691406 -4.1875 2.984375 -4.1875 C 3.328125 -4.1875 3.640625 -4.101562 3.921875 -3.9375 C 4.203125 -3.769531 4.421875 -3.523438 4.578125 -3.203125 C 4.742188 -2.878906 4.828125 -2.507812 4.828125 -2.09375 C 4.828125 -1.664062 4.742188 -1.289062 4.578125 -0.96875 C 4.421875 -0.644531 4.203125 -0.390625 3.921875 -0.203125 C 3.648438 -0.0234375 3.34375 0.0625 3 0.0625 C 2.707031 0.0625 2.453125 0.00390625 2.234375 -0.109375 C 2.015625 -0.234375 1.84375 -0.390625 1.71875 -0.578125 L 1.71875 1.96875 L 0.453125 1.96875 L 0.4375 -4.125 L 1.703125 -4.125 Z M 3.53125 -2.078125 C 3.53125 -2.390625 3.441406 -2.632812 3.265625 -2.8125 C 3.085938 -3 2.875 -3.09375 2.625 -3.09375 C 2.375 -3.09375 2.160156 -3 1.984375 -2.8125 C 1.804688 -2.632812 1.71875 -2.382812 1.71875 -2.0625 C 1.71875 -1.75 1.804688 -1.5 1.984375 -1.3125 C 2.160156 -1.132812 2.375 -1.046875 2.625 -1.046875 C 2.875 -1.046875 3.085938 -1.132812 3.265625 -1.3125 C 3.441406 -1.5 3.53125 -1.753906 3.53125 -2.078125 Z M 3.53125 -2.078125 "/></g></g></g><g fill="#000000" fill-opacity="1"><g transform="translate(65.492921, 5.727708)"><g><path d="M 1.90625 -3.34375 C 2.070312 -3.5625 2.265625 -3.726562 2.484375 -3.84375 C 2.710938 -3.96875 2.960938 -4.023438 3.234375 -4.015625 L 3.171875 -2.6875 L 2.828125 -2.703125 C 2.515625 -2.722656 2.269531 -2.664062 2.09375 -2.53125 C 1.925781 -2.394531 1.835938 -2.160156 1.828125 -1.828125 L 1.71875 0.09375 L 0.453125 0.03125 L 0.671875 -4.09375 L 1.9375 -4.03125 Z M 1.90625 -3.34375 "/></g></g></g><g fill="#000000" fill-opacity="1"><g transform="translate(68.568779, 5.870003)"><g><path d="M 4.546875 -1.671875 C 4.535156 -1.546875 4.515625 -1.421875 4.484375 -1.296875 L 1.640625 -1.59375 C 1.628906 -1.34375 1.6875 -1.140625 1.8125 -0.984375 C 1.945312 -0.835938 2.117188 -0.753906 2.328125 -0.734375 C 2.640625 -0.703125 2.875 -0.816406 3.03125 -1.078125 L 4.390625 -0.921875 C 4.285156 -0.660156 4.128906 -0.429688 3.921875 -0.234375 C 3.722656 -0.0351562 3.484375 0.109375 3.203125 0.203125 C 2.921875 0.304688 2.613281 0.335938 2.28125 0.296875 C 1.875 0.253906 1.519531 0.132812 1.21875 -0.0625 C 0.925781 -0.269531 0.707031 -0.546875 0.5625 -0.890625 C 0.425781 -1.234375 0.378906 -1.613281 0.421875 -2.03125 C 0.460938 -2.457031 0.585938 -2.820312 0.796875 -3.125 C 1.015625 -3.425781 1.285156 -3.644531 1.609375 -3.78125 C 1.941406 -3.925781 2.3125 -3.976562 2.71875 -3.9375 C 3.113281 -3.894531 3.457031 -3.769531 3.75 -3.5625 C 4.050781 -3.363281 4.269531 -3.097656 4.40625 -2.765625 C 4.539062 -2.441406 4.585938 -2.078125 4.546875 -1.671875 Z M 3.3125 -2.140625 C 3.332031 -2.359375 3.269531 -2.535156 3.125 -2.671875 C 2.988281 -2.816406 2.8125 -2.898438 2.59375 -2.921875 C 2.382812 -2.941406 2.203125 -2.898438 2.046875 -2.796875 C 1.890625 -2.691406 1.78125 -2.523438 1.71875 -2.296875 Z M 3.3125 -2.140625 "/></g></g></g><g fill="#000000" fill-opacity="1"><g transform="translate(72.99525, 6.325164)"><g><path d="M 3.640625 -3.609375 C 4.117188 -3.523438 4.472656 -3.304688 4.703125 -2.953125 C 4.929688 -2.597656 5 -2.15625 4.90625 -1.625 L 4.5 0.765625 L 3.265625 0.5625 L 3.640625 -1.65625 C 3.691406 -1.925781 3.65625 -2.148438 3.53125 -2.328125 C 3.414062 -2.503906 3.242188 -2.613281 3.015625 -2.65625 C 2.773438 -2.695312 2.566406 -2.65625 2.390625 -2.53125 C 2.222656 -2.40625 2.113281 -2.207031 2.0625 -1.9375 L 1.6875 0.28125 L 0.453125 0.078125 L 1.140625 -3.984375 L 2.375 -3.78125 L 2.28125 -3.25 C 2.445312 -3.394531 2.644531 -3.5 2.875 -3.5625 C 3.113281 -3.632812 3.367188 -3.648438 3.640625 -3.609375 Z M 3.640625 -3.609375 "/></g></g></g><g fill="#000000" fill-opacity="1"><g transform="translate(77.804008, 7.147244)"><g><path d="M 4.734375 -1.078125 C 4.703125 -0.960938 4.664062 -0.84375 4.625 -0.71875 L 1.828125 -1.375 C 1.785156 -1.125 1.820312 -0.910156 1.9375 -0.734375 C 2.050781 -0.566406 2.207031 -0.460938 2.40625 -0.421875 C 2.707031 -0.347656 2.953125 -0.429688 3.140625 -0.671875 L 4.46875 -0.359375 C 4.332031 -0.109375 4.148438 0.0976562 3.921875 0.265625 C 3.703125 0.441406 3.441406 0.554688 3.140625 0.609375 C 2.847656 0.671875 2.539062 0.664062 2.21875 0.59375 C 1.820312 0.5 1.488281 0.332031 1.21875 0.09375 C 0.957031 -0.144531 0.773438 -0.441406 0.671875 -0.796875 C 0.578125 -1.160156 0.578125 -1.546875 0.671875 -1.953125 C 0.773438 -2.367188 0.945312 -2.710938 1.1875 -2.984375 C 1.4375 -3.265625 1.734375 -3.453125 2.078125 -3.546875 C 2.429688 -3.640625 2.804688 -3.640625 3.203125 -3.546875 C 3.585938 -3.453125 3.910156 -3.285156 4.171875 -3.046875 C 4.429688 -2.816406 4.613281 -2.53125 4.71875 -2.1875 C 4.820312 -1.84375 4.828125 -1.472656 4.734375 -1.078125 Z M 3.546875 -1.703125 C 3.597656 -1.910156 3.5625 -2.09375 3.4375 -2.25 C 3.320312 -2.40625 3.160156 -2.507812 2.953125 -2.5625 C 2.753906 -2.613281 2.566406 -2.59375 2.390625 -2.5 C 2.222656 -2.414062 2.085938 -2.269531 1.984375 -2.0625 Z M 3.546875 -1.703125 "/></g></g></g><g fill="#000000" fill-opacity="1"><g transform="translate(82.136104, 8.164196)"><g><path d="M 5.546875 -2.609375 L 4.34375 1.328125 L 3.140625 0.953125 L 3.3125 0.421875 C 3.113281 0.566406 2.894531 0.65625 2.65625 0.6875 C 2.414062 0.726562 2.164062 0.710938 1.90625 0.640625 C 1.613281 0.546875 1.375 0.394531 1.1875 0.1875 C 1 -0.0078125 0.878906 -0.253906 0.828125 -0.546875 C 0.773438 -0.847656 0.800781 -1.171875 0.90625 -1.515625 L 1.609375 -3.8125 L 2.8125 -3.4375 L 2.15625 -1.3125 C 2.070312 -1.039062 2.078125 -0.8125 2.171875 -0.625 C 2.265625 -0.445312 2.425781 -0.320312 2.65625 -0.25 C 2.894531 -0.175781 3.101562 -0.191406 3.28125 -0.296875 C 3.46875 -0.398438 3.601562 -0.585938 3.6875 -0.859375 L 4.34375 -2.984375 Z M 5.546875 -2.609375 "/></g></g></g><g fill="#000000" fill-opacity="1"><g transform="translate(86.809199, 9.616777)"><g><path d="M 2.796875 -2.640625 C 3.015625 -2.796875 3.25 -2.898438 3.5 -2.953125 C 3.757812 -3.003906 4.015625 -2.984375 4.265625 -2.890625 L 3.8125 -1.640625 L 3.5 -1.75 C 3.195312 -1.851562 2.941406 -1.867188 2.734375 -1.796875 C 2.535156 -1.722656 2.378906 -1.523438 2.265625 -1.203125 L 1.609375 0.59375 L 0.421875 0.15625 L 1.84375 -3.71875 L 3.03125 -3.28125 Z M 2.796875 -2.640625 "/></g></g></g><g fill="#000000" fill-opacity="1"><g transform="translate(89.727206, 10.699627)"><g/></g></g><g fill="#000000" fill-opacity="1"><g transform="translate(91.128993, 11.226127)"><g><path d="M 2.109375 1.03125 C 1.734375 0.863281 1.4375 0.632812 1.21875 0.34375 C 1 0.0507812 0.867188 -0.28125 0.828125 -0.65625 C 0.796875 -1.03125 0.863281 -1.410156 1.03125 -1.796875 C 1.207031 -2.191406 1.445312 -2.492188 1.75 -2.703125 C 2.0625 -2.921875 2.398438 -3.039062 2.765625 -3.0625 C 3.140625 -3.082031 3.515625 -3.007812 3.890625 -2.84375 C 4.253906 -2.675781 4.546875 -2.445312 4.765625 -2.15625 C 4.992188 -1.863281 5.125 -1.53125 5.15625 -1.15625 C 5.1875 -0.789062 5.113281 -0.410156 4.9375 -0.015625 C 4.769531 0.367188 4.535156 0.671875 4.234375 0.890625 C 3.929688 1.109375 3.59375 1.226562 3.21875 1.25 C 2.84375 1.269531 2.472656 1.195312 2.109375 1.03125 Z M 2.5625 0.03125 C 2.78125 0.125 3.003906 0.125 3.234375 0.03125 C 3.460938 -0.0507812 3.644531 -0.242188 3.78125 -0.546875 C 3.925781 -0.847656 3.957031 -1.113281 3.875 -1.34375 C 3.789062 -1.570312 3.644531 -1.738281 3.4375 -1.84375 C 3.207031 -1.945312 2.976562 -1.945312 2.75 -1.84375 C 2.53125 -1.75 2.347656 -1.550781 2.203125 -1.25 C 2.066406 -0.945312 2.035156 -0.679688 2.109375 -0.453125 C 2.191406 -0.234375 2.34375 -0.0703125 2.5625 0.03125 Z M 2.5625 0.03125 "/></g></g></g><g fill="#000000" fill-opacity="1"><g transform="translate(95.335412, 13.157784)"><g><path d="M 3.65625 -1.578125 L 3.046875 -1.890625 L 1.640625 0.84375 L 0.515625 0.265625 L 1.921875 -2.46875 L 1.515625 -2.671875 L 2 -3.609375 L 2.40625 -3.40625 L 2.453125 -3.515625 C 2.691406 -3.960938 3 -4.238281 3.375 -4.34375 C 3.757812 -4.445312 4.203125 -4.375 4.703125 -4.125 C 4.785156 -4.082031 4.847656 -4.039062 4.890625 -4 L 4.390625 -3.046875 C 4.179688 -3.171875 4.015625 -3.21875 3.890625 -3.1875 C 3.765625 -3.164062 3.648438 -3.054688 3.546875 -2.859375 L 3.53125 -2.828125 L 4.140625 -2.515625 Z M 3.65625 -1.578125 "/></g></g></g><g fill="#000000" fill-opacity="1"><g transform="translate(97.65772, 14.360428)"><g/></g></g><g fill="#000000" fill-opacity="1"><g transform="translate(98.991634, 15.081242)"><g><path d="M 2.921875 0.484375 L 2.375 1.40625 L 1.828125 1.078125 C 1.421875 0.835938 1.164062 0.554688 1.0625 0.234375 C 0.957031 -0.0859375 1.035156 -0.46875 1.296875 -0.90625 L 2.125 -2.328125 L 1.703125 -2.578125 L 2.234375 -3.46875 L 2.65625 -3.21875 L 3.171875 -4.09375 L 4.265625 -3.4375 L 3.75 -2.5625 L 4.46875 -2.140625 L 3.9375 -1.25 L 3.21875 -1.671875 L 2.375 -0.234375 C 2.3125 -0.128906 2.289062 -0.0390625 2.3125 0.03125 C 2.34375 0.113281 2.414062 0.1875 2.53125 0.25 Z M 2.921875 0.484375 "/></g></g></g><g fill="#000000" fill-opacity="1"><g transform="translate(101.514601, 16.538466)"><g><path d="M 4.8125 -1.8125 C 5.195312 -1.550781 5.421875 -1.207031 5.484375 -0.78125 C 5.554688 -0.363281 5.441406 0.0664062 5.140625 0.515625 L 3.796875 2.53125 L 2.75 1.84375 L 4 -0.03125 C 4.144531 -0.25 4.203125 -0.460938 4.171875 -0.671875 C 4.140625 -0.890625 4.023438 -1.066406 3.828125 -1.203125 C 3.628906 -1.335938 3.425781 -1.378906 3.21875 -1.328125 C 3.007812 -1.273438 2.832031 -1.140625 2.6875 -0.921875 L 1.4375 0.953125 L 0.375 0.25 L 3.421875 -4.3125 L 4.484375 -3.609375 L 3.421875 -2.03125 C 3.617188 -2.101562 3.835938 -2.125 4.078125 -2.09375 C 4.328125 -2.0625 4.570312 -1.96875 4.8125 -1.8125 Z M 4.8125 -1.8125 "/></g></g></g><g fill="#000000" fill-opacity="1"><g transform="translate(105.573865, 19.243718)"><g><path d="M 4.765625 0.9375 C 4.691406 1.039062 4.609375 1.132812 4.515625 1.21875 L 2.25 -0.515625 C 2.09375 -0.296875 2.035156 -0.0859375 2.078125 0.109375 C 2.117188 0.304688 2.222656 0.46875 2.390625 0.59375 C 2.628906 0.789062 2.878906 0.816406 3.140625 0.671875 L 4.21875 1.5 C 4.007812 1.664062 3.765625 1.78125 3.484375 1.84375 C 3.203125 1.90625 2.914062 1.90625 2.625 1.84375 C 2.332031 1.78125 2.054688 1.644531 1.796875 1.4375 C 1.472656 1.1875 1.234375 0.898438 1.078125 0.578125 C 0.929688 0.253906 0.882812 -0.0859375 0.9375 -0.453125 C 0.988281 -0.816406 1.144531 -1.171875 1.40625 -1.515625 C 1.664062 -1.859375 1.960938 -2.101562 2.296875 -2.25 C 2.640625 -2.394531 2.988281 -2.441406 3.34375 -2.390625 C 3.707031 -2.335938 4.050781 -2.1875 4.375 -1.9375 C 4.6875 -1.695312 4.914062 -1.414062 5.0625 -1.09375 C 5.207031 -0.769531 5.253906 -0.429688 5.203125 -0.078125 C 5.160156 0.273438 5.015625 0.613281 4.765625 0.9375 Z M 3.9375 -0.109375 C 4.070312 -0.273438 4.113281 -0.453125 4.0625 -0.640625 C 4.019531 -0.835938 3.910156 -1 3.734375 -1.125 C 3.566406 -1.257812 3.390625 -1.320312 3.203125 -1.3125 C 3.015625 -1.3125 2.835938 -1.234375 2.671875 -1.078125 Z M 3.9375 -0.109375 "/></g></g></g><g fill="#000000" fill-opacity="1"><g transform="translate(109.123572, 21.990178)"><g/></g></g><g fill="#000000" fill-opacity="1"><g transform="translate(110.2991, 22.912954)"><g><path d="M 7.140625 -0.546875 L 3.46875 0.828125 L 2.3125 2.09375 L 1.359375 1.234375 L 2.515625 -0.03125 L 3.53125 -3.828125 L 4.59375 -2.859375 L 3.890625 -0.5625 L 6.09375 -1.515625 Z M 7.140625 -0.546875 "/></g></g></g><g fill="#000000" fill-opacity="1"><g transform="translate(113.89568, 26.176148)"><g><path d="M 4.5625 1.640625 C 4.476562 1.722656 4.382812 1.800781 4.28125 1.875 L 2.28125 -0.1875 C 2.113281 0.0195312 2.03125 0.222656 2.03125 0.421875 C 2.03125 0.617188 2.101562 0.789062 2.25 0.9375 C 2.46875 1.164062 2.722656 1.226562 3.015625 1.125 L 3.953125 2.109375 C 3.703125 2.242188 3.4375 2.320312 3.15625 2.34375 C 2.875 2.363281 2.59375 2.316406 2.3125 2.203125 C 2.039062 2.097656 1.785156 1.925781 1.546875 1.6875 C 1.265625 1.394531 1.078125 1.078125 0.984375 0.734375 C 0.890625 0.390625 0.894531 0.0390625 1 -0.3125 C 1.101562 -0.664062 1.3125 -0.992188 1.625 -1.296875 C 1.925781 -1.585938 2.253906 -1.78125 2.609375 -1.875 C 2.972656 -1.976562 3.320312 -1.976562 3.65625 -1.875 C 4 -1.769531 4.3125 -1.570312 4.59375 -1.28125 C 4.875 -0.988281 5.0625 -0.671875 5.15625 -0.328125 C 5.257812 0.015625 5.257812 0.351562 5.15625 0.6875 C 5.050781 1.03125 4.851562 1.347656 4.5625 1.640625 Z M 3.90625 0.484375 C 4.0625 0.328125 4.128906 0.15625 4.109375 -0.03125 C 4.097656 -0.226562 4.019531 -0.40625 3.875 -0.5625 C 3.726562 -0.71875 3.554688 -0.804688 3.359375 -0.828125 C 3.171875 -0.847656 2.976562 -0.796875 2.78125 -0.671875 Z M 3.90625 0.484375 "/></g></g></g><g fill="#000000" fill-opacity="1"><g transform="translate(117.002104, 29.362424)"><g><path d="M 1.703125 -1.1875 C 2.023438 -1.457031 2.363281 -1.640625 2.71875 -1.734375 C 3.070312 -1.828125 3.398438 -1.820312 3.703125 -1.71875 C 4.015625 -1.613281 4.28125 -1.429688 4.5 -1.171875 C 4.695312 -0.953125 4.820312 -0.722656 4.875 -0.484375 C 4.925781 -0.242188 4.914062 -0.0078125 4.84375 0.21875 L 5.28125 -0.15625 L 6.09375 0.796875 L 2.953125 3.46875 L 2.140625 2.515625 L 2.578125 2.140625 C 2.359375 2.171875 2.128906 2.140625 1.890625 2.046875 C 1.660156 1.953125 1.453125 1.796875 1.265625 1.578125 C 1.046875 1.328125 0.914062 1.035156 0.875 0.703125 C 0.832031 0.378906 0.878906 0.0507812 1.015625 -0.28125 C 1.148438 -0.613281 1.378906 -0.914062 1.703125 -1.1875 Z M 3.703125 1.171875 C 3.953125 0.960938 4.09375 0.734375 4.125 0.484375 C 4.15625 0.234375 4.085938 0.015625 3.921875 -0.171875 C 3.753906 -0.367188 3.539062 -0.472656 3.28125 -0.484375 C 3.03125 -0.503906 2.785156 -0.410156 2.546875 -0.203125 C 2.304688 0.00390625 2.171875 0.234375 2.140625 0.484375 C 2.117188 0.734375 2.191406 0.957031 2.359375 1.15625 C 2.523438 1.34375 2.734375 1.441406 2.984375 1.453125 C 3.234375 1.472656 3.472656 1.378906 3.703125 1.171875 Z M 3.703125 1.171875 "/></g></g></g><g fill="#000000" fill-opacity="1"><g transform="translate(120.183877, 33.129008)"><g><path d="M 3.78125 -0.71875 C 4.050781 -0.738281 4.300781 -0.695312 4.53125 -0.59375 C 4.769531 -0.5 4.972656 -0.347656 5.140625 -0.140625 L 4.09375 0.671875 L 3.890625 0.40625 C 3.691406 0.15625 3.488281 0.0078125 3.28125 -0.03125 C 3.070312 -0.0820312 2.835938 -0.0078125 2.578125 0.1875 L 1.046875 1.359375 L 0.28125 0.359375 L 3.5625 -2.140625 L 4.328125 -1.140625 Z M 3.78125 -0.71875 "/></g></g></g><g clip-path="url(#8b17efc51d)"><path fill="#e5bc0c" d="M 79.054688 41.453125 L 79.179688 41.582031 C 81.316406 39.542969 83.082031 37.054688 84.03125 34.234375 C 84.507812 32.832031 84.761719 31.347656 84.75 29.863281 C 84.734375 28.378906 84.464844 26.894531 83.933594 25.503906 L 83.769531 25.570312 C 84.289062 26.9375 84.554688 28.398438 84.574219 29.863281 C 84.582031 31.328125 84.332031 32.792969 83.863281 34.179688 C 82.929688 36.964844 81.179688 39.433594 79.054688 41.453125 Z M 79.054688 41.453125 " fill-opacity="1" fill-rule="nonzero"/></g><g clip-path="url(#6c54c276a3)"><path fill="#e5bc0c" d="M 81.878906 22.03125 C 81.964844 22.4375 82.03125 22.945312 82.144531 23.40625 C 82.195312 23.640625 82.257812 23.867188 82.351562 24.0625 C 82.4375 24.265625 82.550781 24.4375 82.707031 24.574219 C 83.167969 24.996094 83.746094 25.546875 83.992188 26.210938 C 84.023438 26.183594 84.136719 26.195312 84.15625 26.160156 C 83.910156 25.445312 84.09375 24.414062 83.835938 23.734375 C 83.535156 22.90625 82.679688 22.195312 81.878906 22.03125 Z M 81.878906 22.03125 " fill-opacity="1" fill-rule="nonzero"/></g><path fill="#e5bc0c" d="M 81.515625 34.707031 C 81.347656 35.324219 80.945312 36.222656 81.238281 36.90625 C 81.460938 37.421875 81.714844 38.015625 81.71875 38.644531 C 81.757812 38.542969 81.921875 38.347656 81.949219 38.320312 C 81.945312 37.652344 82.410156 37.246094 82.449219 36.660156 C 82.488281 35.933594 82.078125 35.144531 81.515625 34.707031 Z M 81.515625 34.707031 " fill-opacity="1" fill-rule="nonzero"/><path fill="#e5bc0c" d="M 85.3125 36.398438 C 84.910156 37.117188 84.214844 38.179688 83.433594 38.265625 C 82.84375 38.335938 82.1875 38.359375 81.597656 38.554688 C 81.675781 38.488281 81.804688 38.265625 81.816406 38.230469 C 82.453125 37.988281 82.605469 37.367188 83.097656 37.019531 C 83.695312 36.582031 84.585938 36.332031 85.3125 36.398438 Z M 85.3125 36.398438 " fill-opacity="1" fill-rule="nonzero"/><path fill="#e5bc0c" d="M 82.390625 31.945312 C 82.375 32.566406 82.183594 33.503906 82.605469 34.105469 C 82.9375 34.558594 83.300781 35.089844 83.429688 35.707031 C 83.453125 35.605469 83.566406 35.375 83.589844 35.347656 C 83.460938 34.691406 83.824219 34.199219 83.738281 33.621094 C 83.621094 32.902344 83.039062 32.234375 82.390625 31.945312 Z M 82.390625 31.945312 " fill-opacity="1" fill-rule="nonzero"/><g clip-path="url(#737bd67e0d)"><path fill="#e5bc0c" d="M 86.476562 32.714844 C 86.246094 33.527344 85.789062 34.738281 85.035156 34.988281 C 84.472656 35.183594 83.828125 35.335938 83.289062 35.644531 C 83.359375 35.566406 83.4375 35.320312 83.441406 35.285156 C 84.023438 34.921875 84.042969 34.277344 84.449219 33.832031 C 84.941406 33.277344 85.75 32.820312 86.476562 32.714844 Z M 86.476562 32.714844 " fill-opacity="1" fill-rule="nonzero"/></g><path fill="#e5bc0c" d="M 82.542969 29.125 C 82.691406 29.722656 82.746094 30.652344 83.304688 31.125 C 83.734375 31.476562 84.21875 31.902344 84.484375 32.476562 C 84.480469 32.371094 84.539062 32.121094 84.558594 32.085938 C 84.273438 31.484375 84.507812 30.917969 84.277344 30.378906 C 83.980469 29.71875 83.25 29.226562 82.542969 29.125 Z M 82.542969 29.125 " fill-opacity="1" fill-rule="nonzero"/><g clip-path="url(#a712491fb1)"><path fill="#e5bc0c" d="M 86.683594 28.789062 C 86.683594 29.636719 86.542969 30.953125 85.871094 31.386719 C 85.375 31.71875 84.789062 32.023438 84.332031 32.449219 C 84.382812 32.351562 84.398438 32.097656 84.398438 32.058594 C 84.878906 31.574219 84.738281 30.941406 85.019531 30.40625 C 85.351562 29.742188 86.019531 29.085938 86.683594 28.789062 Z M 86.683594 28.789062 " fill-opacity="1" fill-rule="nonzero"/></g><path fill="#e5bc0c" d="M 81.933594 26.371094 C 82.242188 26.910156 82.542969 27.789062 83.207031 28.09375 C 83.710938 28.320312 84.296875 28.601562 84.699219 29.085938 C 84.664062 28.984375 84.664062 28.726562 84.671875 28.6875 C 84.230469 28.183594 84.320312 27.574219 83.941406 27.117188 C 83.488281 26.558594 82.640625 26.285156 81.933594 26.371094 Z M 81.933594 26.371094 " fill-opacity="1" fill-rule="nonzero"/><g clip-path="url(#79f462a1fb)"><path fill="#e5bc0c" d="M 85.835938 24.941406 C 86.0625 25.757812 86.28125 27.066406 85.753906 27.664062 C 85.355469 28.117188 84.878906 28.566406 84.546875 29.097656 C 84.5625 28.992188 84.519531 28.738281 84.507812 28.707031 C 84.835938 28.109375 84.546875 27.535156 84.664062 26.945312 C 84.816406 26.214844 85.269531 25.40625 85.835938 24.941406 Z M 85.835938 24.941406 " fill-opacity="1" fill-rule="nonzero"/></g><g fill="#000000" fill-opacity="1"><g transform="translate(51.988528, 35.208129)"><g/></g></g><g fill="#000000" fill-opacity="1"><g transform="translate(53.947931, 34.919005)"><g><path d="M 0.265625 -1.390625 C 0.472656 -1.585938 0.566406 -1.679688 0.546875 -1.671875 C 1.160156 -2.242188 1.632812 -2.71875 1.96875 -3.09375 C 2.300781 -3.46875 2.582031 -3.851562 2.8125 -4.25 C 3.039062 -4.65625 3.140625 -5.039062 3.109375 -5.40625 C 3.078125 -5.675781 2.992188 -5.878906 2.859375 -6.015625 C 2.722656 -6.160156 2.523438 -6.222656 2.265625 -6.203125 C 2.015625 -6.171875 1.828125 -6.054688 1.703125 -5.859375 C 1.585938 -5.660156 1.546875 -5.390625 1.578125 -5.046875 L -0.0625 -4.90625 C -0.09375 -5.457031 -0.015625 -5.929688 0.171875 -6.328125 C 0.367188 -6.722656 0.644531 -7.023438 1 -7.234375 C 1.351562 -7.441406 1.757812 -7.566406 2.21875 -7.609375 C 3 -7.679688 3.609375 -7.535156 4.046875 -7.171875 C 4.484375 -6.804688 4.726562 -6.296875 4.78125 -5.640625 C 4.84375 -4.941406 4.65625 -4.269531 4.21875 -3.625 C 3.789062 -2.976562 3.234375 -2.335938 2.546875 -1.703125 L 5.21875 -1.9375 L 5.328125 -0.5625 L 0.375 -0.125 Z M 0.265625 -1.390625 "/></g></g></g><g fill="#000000" fill-opacity="1"><g transform="translate(59.39438, 34.425061)"><g><path d="M 0.359375 -3.734375 C 0.335938 -4.867188 0.535156 -5.765625 0.953125 -6.421875 C 1.378906 -7.085938 2.082031 -7.429688 3.0625 -7.453125 C 4.039062 -7.472656 4.753906 -7.160156 5.203125 -6.515625 C 5.660156 -5.878906 5.898438 -4.992188 5.921875 -3.859375 C 5.953125 -2.703125 5.753906 -1.789062 5.328125 -1.125 C 4.910156 -0.46875 4.210938 -0.128906 3.234375 -0.109375 C 2.253906 -0.0859375 1.535156 -0.394531 1.078125 -1.03125 C 0.628906 -1.675781 0.390625 -2.578125 0.359375 -3.734375 Z M 4.25 -3.828125 C 4.238281 -4.492188 4.15625 -5.003906 4 -5.359375 C 3.84375 -5.710938 3.539062 -5.882812 3.09375 -5.875 C 2.632812 -5.863281 2.335938 -5.675781 2.203125 -5.3125 C 2.066406 -4.945312 2.003906 -4.429688 2.015625 -3.765625 C 2.023438 -3.316406 2.0625 -2.941406 2.125 -2.640625 C 2.1875 -2.347656 2.300781 -2.113281 2.46875 -1.9375 C 2.632812 -1.757812 2.878906 -1.675781 3.203125 -1.6875 C 3.515625 -1.695312 3.75 -1.789062 3.90625 -1.96875 C 4.0625 -2.15625 4.160156 -2.398438 4.203125 -2.703125 C 4.242188 -3.003906 4.257812 -3.378906 4.25 -3.828125 Z M 4.25 -3.828125 "/></g></g></g><g fill="#000000" fill-opacity="1"><g transform="translate(65.662732, 34.28126)"><g><path d="M 0.4375 -1.34375 C 0.664062 -1.507812 0.769531 -1.585938 0.75 -1.578125 C 1.425781 -2.085938 1.957031 -2.503906 2.34375 -2.828125 C 2.726562 -3.160156 3.054688 -3.507812 3.328125 -3.875 C 3.597656 -4.238281 3.742188 -4.601562 3.765625 -4.96875 C 3.773438 -5.238281 3.71875 -5.453125 3.59375 -5.609375 C 3.476562 -5.765625 3.289062 -5.847656 3.03125 -5.859375 C 2.78125 -5.867188 2.582031 -5.78125 2.4375 -5.59375 C 2.289062 -5.414062 2.207031 -5.15625 2.1875 -4.8125 L 0.546875 -4.875 C 0.585938 -5.425781 0.726562 -5.882812 0.96875 -6.25 C 1.207031 -6.625 1.515625 -6.894531 1.890625 -7.0625 C 2.273438 -7.226562 2.695312 -7.300781 3.15625 -7.28125 C 3.9375 -7.25 4.519531 -7.023438 4.90625 -6.609375 C 5.289062 -6.191406 5.472656 -5.65625 5.453125 -5 C 5.421875 -4.300781 5.148438 -3.660156 4.640625 -3.078125 C 4.140625 -2.492188 3.507812 -1.921875 2.75 -1.359375 L 5.421875 -1.265625 L 5.359375 0.109375 L 0.390625 -0.078125 Z M 0.4375 -1.34375 "/></g></g></g><g fill="#000000" fill-opacity="1"><g transform="translate(71.124669, 34.471677)"><g><path d="M 0.609375 -1.234375 L 0.765625 -2.59375 L 4.328125 -6.71875 L 6.21875 -6.53125 L 5.765625 -2.171875 L 6.5625 -2.078125 L 6.40625 -0.625 L 5.609375 -0.71875 L 5.484375 0.5625 L 3.796875 0.390625 L 3.921875 -0.890625 Z M 4.46875 -4.828125 L 2.53125 -2.5 L 4.203125 -2.328125 Z M 4.46875 -4.828125 "/></g></g></g></svg>